<?xml version="1.0" standalone="no"?>
<!DOCTYPE svg PUBLIC "-//W3C//DTD SVG 20010904//EN"
 "http://www.w3.org/TR/2001/REC-SVG-20010904/DTD/svg10.dtd">
<svg version="1.0" xmlns="http://www.w3.org/2000/svg"
 width="512.000000pt" height="512.000000pt" viewBox="0 0 512.000000 512.000000"
 preserveAspectRatio="xMidYMid meet">

<g transform="translate(0.000000,512.000000) scale(0.100000,-0.100000)"
fill="#000000" stroke="none">
<path d="M3417 4720 c-88 -22 -163 -84 -208 -170 -21 -40 -24 -61 -27 -202
l-4 -158 -1427 -2 -1426 -3 -67 -33 c-77 -37 -128 -90 -167 -172 l-26 -55 0
-1370 0 -1370 27 -57 c35 -76 98 -142 167 -175 51 -26 68 -28 200 -33 l143 -5
22 -75 c90 -309 385 -496 687 -436 126 26 219 76 309 166 86 86 132 164 159
272 l19 73 694 3 695 2 13 -57 c69 -313 382 -520 693 -459 123 24 218 75 308
165 97 97 140 178 173 323 l6 27 213 3 c208 3 213 3 268 31 69 33 132 99 167
175 l27 57 0 750 0 750 -26 55 c-39 80 -773 1277 -815 1328 -73 88 -162 122
-320 122 l-103 0 -3 158 c-3 177 -15 215 -85 287 -68 70 -195 107 -286 85z
m644 -715 c36 -26 99 -124 435 -674 217 -355 399 -661 404 -680 5 -20 10 -136
10 -258 l0 -223 -2350 0 -2350 0 0 843 c0 516 4 855 10 876 16 56 52 100 105
126 l49 25 1822 -2 1822 -3 43 -30z m847 -2392 c-3 -392 -3 -399 -26 -440 -12
-24 -41 -55 -64 -70 -41 -28 -43 -28 -239 -31 l-198 -3 -7 28 c-38 172 -123
301 -259 392 -98 66 -176 91 -300 98 -177 10 -324 -46 -450 -171 -85 -85 -127
-154 -157 -264 l-23 -82 -694 3 -694 2 -14 59 c-38 167 -167 324 -327 400
-179 85 -395 71 -572 -35 -123 -74 -238 -234 -266 -371 l-12 -59 -131 3 c-124
3 -134 5 -173 31 -23 15 -52 46 -64 70 -23 41 -23 48 -26 440 l-3 397 2351 0
2351 0 -3 -397z"/>
<path d="M3002 3779 c-28 -14 -51 -36 -67 -64 l-25 -42 0 -522 c0 -572 -2
-552 60 -605 17 -14 49 -30 70 -36 27 -7 266 -10 727 -8 769 3 722 -1 780 75
24 31 28 46 28 102 l0 66 -305 499 c-254 415 -312 503 -344 525 l-40 26 -420
3 c-412 2 -422 2 -464 -19z"/>
<path d="M1215 3665 c-25 -24 -25 -25 -25 -229 l0 -205 -211 -3 c-208 -3 -211
-3 -230 -27 -25 -30 -24 -76 1 -101 19 -19 33 -20 230 -20 l210 0 0 -210 c0
-197 1 -211 20 -230 27 -27 83 -27 110 2 19 20 20 34 20 230 l0 208 210 0
c202 0 210 1 230 22 25 27 26 69 1 99 -19 24 -22 24 -230 27 l-211 3 0 205 c0
204 0 205 -25 229 -13 14 -36 25 -50 25 -14 0 -37 -11 -50 -25z"/>
</g>
</svg>
